<svg xmlns="http://www.w3.org/2000/svg" viewBox="0 0 512 512"><path d="M256 0C114.842 0 0 114.842 0 256s114.842 256 256 256 256-114.842 256-256S397.158 0 256 0zm0 494.933C124.254 494.933 17.067 387.746 17.067 256S124.254 17.067 256 17.067 494.933 124.254 494.933 256 387.746 494.933 256 494.933z"/><path d="M493.278 332.954c-39.219-24.533-66.611-98.287-66.611-179.354 0-26.086 2.688-51.379 7.996-75.17 1.024-4.599-1.877-9.165-6.477-10.189-4.617-1.007-9.165 1.877-10.189 6.477-5.572 25.011-8.397 51.55-8.397 78.882 0 88.013 29.995 165.905 74.633 193.818a8.538 8.538 0 0 0 11.759-2.705c2.491-3.994 1.279-9.268-2.714-11.759zM192.444 9.796a8.58 8.58 0 0 0-5.487-.299C76.885 40.269 0 141.636 0 256c0 141.158 114.842 256 256 256 42.103 0 83.883-10.47 120.823-30.285a8.56 8.56 0 0 0 4.335-5.845l2.739-13.73.179-1.118c4.156-26.112 8.457-53.103 8.457-81.289 0-173.107-80.409-321.775-200.089-369.937zm174.78 448.538l-2.005 10.206c-33.587 17.28-71.262 26.394-109.218 26.394C124.254 494.933 17.067 387.746 17.067 256c0-105.771 70.451-199.629 171.691-229.274 111.795 46.746 186.709 188.109 186.709 353.007 0 26.838-4.19 53.155-8.243 78.601z"/><path d="M199.014 444.194c-16.051-5.478-32.171-13.542-49.297-24.678-3.959-2.569-9.242-1.451-11.81 2.5s-1.451 9.233 2.5 11.802c18.33 11.913 35.695 20.591 53.103 26.522a8.65 8.65 0 0 0 2.756.461c3.55 0 6.869-2.236 8.073-5.769 1.519-4.463-.862-9.319-5.325-10.838zM109.056 387.192c-1.997-2.483-4.181-5.094-6.443-7.782-6.639-7.91-14.174-16.87-18.193-24.858-2.125-4.207-7.253-5.914-11.46-3.78-4.207 2.125-5.905 7.253-3.78 11.46 4.915 9.762 13.124 19.533 20.369 28.16 2.176 2.586 4.284 5.094 6.195 7.475a8.513 8.513 0 0 0 6.665 3.2 8.53 8.53 0 0 0 6.647-13.875zM494.933 182.733c-249.813-1.988-397.15 81.741-476.8 152.627-3.516 3.132-3.831 8.525-.7 12.049a8.505 8.505 0 0 0 6.374 2.859 8.515 8.515 0 0 0 5.666-2.159c77.406-68.89 221.082-150.332 465.297-148.309h.085c4.676 0 8.491-3.772 8.533-8.457.045-4.71-3.744-8.567-8.455-8.61z"/><path d="M77.662 85.333c-2.603 0-5.188-.111-7.774-.239-4.736-.085-8.704 3.413-8.926 8.124-.23 4.702 3.405 8.704 8.115 8.926 2.85.137 5.709.256 8.585.256 112.93 0 204.8 109.099 204.8 243.2 0 59.716-14.498 112.572-41.924 152.849a8.534 8.534 0 0 0 7.049 13.337 8.54 8.54 0 0 0 7.066-3.729c29.355-43.127 44.877-99.302 44.877-162.458-.001-143.513-99.534-260.266-221.868-260.266z"/></svg>