<svg xmlns="http://www.w3.org/2000/svg" height="512" viewBox="0 0 58 58" width="512" xmlns:v="https://vecta.io/nano"><path d="M24.017 33.983c-5.536-5.536-6.786-11.072-7.068-13.3a1.99 1.99 0 0 1 .571-1.664L22 14.55a2 2 0 0 0 .282-2.475L15.15 1a2 2 0 0 0-2.591-.729L1.107 5.664a1.99 1.99 0 0 0-1.1 1.987c.6 5.7 3.085 19.712 16.855 33.483S44.642 57.4 50.345 58a1.99 1.99 0 0 0 1.987-1.1l5.393-11.45A2 2 0 0 0 57 42.851l-11.076-7.13a2 2 0 0 0-2.475.28l-4.478 4.48a1.99 1.99 0 0 1-1.664.571c-2.218-.282-7.754-1.532-13.3-7.068zM46 31a2 2 0 0 1-2-2 15.02 15.02 0 0 0-15-15 2 2 0 1 1 0-4c10.5.012 18.988 8.5 19 19a2 2 0 0 1-2 2zm10 0a2 2 0 0 1-2-2C53.985 15.2 42.8 4.015 29 4a2 2 0 1 1 0-4c16 .018 28.982 13 29 29a2 2 0 0 1-2 2z"/></svg>